HIERARCHY
ROOT Hips
{
	OFFSET 0.000000 0.000000 0.000000 
	CHANNELS 6 Xposition Yposition Zposition Zrotation Yrotation Xrotation
	JOINT LeftUpLeg
	{
		OFFSET 1.363060 -1.794630 0.839290 
		CHANNELS 3 Zrotation Yrotation Xrotation
		JOINT LeftLeg
		{
			OFFSET 2.448110 -6.726130 0.000000 
			CHANNELS 3 Zrotation Yrotation Xrotation
			JOINT LeftFoot
			{
				OFFSET 2.562200 -7.039590 0.000000 
				CHANNELS 3 Zrotation Yrotation Xrotation
				JOINT LeftToeBase
				{
					OFFSET 0.157640 -0.433110 2.322550 
					CHANNELS 3 Zrotation Yrotation Xrotation
					End Site
					{
						OFFSET 0.000000 0.000000 0.000000 
					}
				}
			}
		}
	}
	JOINT RightUpLeg
	{
		OFFSET -1.305520 -1.794630 0.839290 
		CHANNELS 3 Zrotation Yrotation Xrotation
		JOINT RightLeg
		{
			OFFSET -2.542530 -6.985550 0.000000 
			CHANNELS 3 Zrotation Yrotation Xrotation
			JOINT RightFoot
			{
				OFFSET -2.568260 -7.056230 0.000000 
				CHANNELS 3 Zrotation Yrotation Xrotation
				JOINT RightToeBase
				{
					OFFSET -0.164730 -0.452590 2.363150 
					CHANNELS 3 Zrotation Yrotation Xrotation
					End Site
					{
						OFFSET 0.000000 0.000000 0.000000 
					}
				}
			}
		}
	}
	JOINT Spine
	{
		OFFSET 0.028270 2.035590 -0.193380 
		CHANNELS 3 Zrotation Yrotation Xrotation
		JOINT Spine1
		{
			OFFSET 0.056720 2.048850 -0.042750 
			CHANNELS 3 Zrotation Yrotation Xrotation
			JOINT Neck1
			{
				OFFSET -0.054170 1.746240 0.172020 
				CHANNELS 3 Zrotation Yrotation Xrotation
				JOINT Head
				{
					OFFSET 0.104070 1.761360 -0.123970 
					CHANNELS 3 Zrotation Yrotation Xrotation
					End Site
					{
						OFFSET 0.000000 0.000000 0.000000 
					}
				}
			}
			JOINT LeftArm
			{
				OFFSET 3.362410 1.200890 -0.311210 
				CHANNELS 3 Zrotation Yrotation Xrotation
				JOINT LeftForeArm
				{
					OFFSET 4.983000 -0.000000 -0.000000 
					CHANNELS 3 Zrotation Yrotation Xrotation
					JOINT LeftHand
					{
						OFFSET 3.483560 -0.000000 -0.000000 
						CHANNELS 3 Zrotation Yrotation Xrotation
						JOINT LeftHandIndex1
						{
							OFFSET 0.715260 -0.000000 -0.000000 
							CHANNELS 3 Zrotation Yrotation Xrotation
							End Site
							{
								OFFSET 0.000000 0.000000 0.000000 
							}
						}
					}
				}
			}
			JOINT RightArm
			{
				OFFSET -3.136600 1.374050 -0.404650 
				CHANNELS 3 Zrotation Yrotation Xrotation
				JOINT RightForeArm
				{
					OFFSET -5.241900 -0.000000 -0.000000 
					CHANNELS 3 Zrotation Yrotation Xrotation
					JOINT RightHand
					{
						OFFSET -3.444170 -0.000000 -0.000000 
						CHANNELS 3 Zrotation Yrotation Xrotation
						JOINT RightHandIndex1
						{
							OFFSET -0.622530 -0.000000 -0.000000 
							CHANNELS 3 Zrotation Yrotation Xrotation
							End Site
							{
								OFFSET 0.000000 0.000000 0.000000 
							}
						}
					}
				}
			}
		}
	}
}
MOTION
Frames: 15
Frame Time: 0.041667
48.482389 16.839737 -5.003511 171.658500 -15.483296 179.525600 -39.137836 -0.239687 15.494428 -1.316903 6.928987 16.148148 1.425693 -7.311110 -15.931851 0.211500 2.960700 8.169300 4.890471 7.473106 -16.541436 -1.968622 -5.275934 11.711559 0.559295 12.856614 -8.424717 -0.001600 -0.256200 0.704000 -0.411529 0.981868 0.323301 -1.799487 -0.460517 9.518690 5.121186 5.986414 12.510893 -1.381300 3.377000 12.073000 -90.481739 -21.907770 52.186286 17.288919 -28.715182 -4.891722 -0.480532 0.760231 -0.231733 -7.125000 0.000000 0.000000 85.351263 -6.909818 31.104983 -16.321437 30.614118 -4.214204 0.680648 -2.522445 -5.400758 7.125000 0.000000 0.000000 
48.472008 16.803250 -5.140211 171.526484 -16.039562 179.719050 -39.189196 -0.388621 15.792162 -1.264383 7.082969 16.593320 1.486186 -7.727903 -16.196139 0.189700 2.805400 7.737400 4.783032 7.562994 -16.775410 -1.985942 -5.331133 11.889521 0.608372 13.175477 -8.174532 -0.000100 0.068100 -0.187200 -0.381354 1.018680 0.324636 -1.609547 -0.457275 9.517157 5.341006 5.865201 12.399833 -1.216200 3.323800 11.947200 -90.209797 -21.655157 53.976588 18.129015 -29.739315 -5.288577 -0.517601 0.711750 -2.197985 -7.125000 0.000000 0.000000 85.084947 -6.640973 31.249459 -16.107902 30.353562 -4.144598 0.649663 -2.528880 -5.340946 7.125000 0.000000 0.000000 
48.466046 16.769948 -5.278041 171.440001 -16.667496 179.888669 -38.892045 -0.371009 15.947336 -1.180669 7.210901 16.992773 1.544783 -9.169258 -15.755437 0.371400 3.914600 10.836600 4.875487 7.550994 -16.958100 -1.999466 -5.452241 12.229354 0.588880 12.876702 -8.042490 -0.036800 1.238300 -3.404800 -0.321570 1.018676 0.318820 -1.333304 -0.480802 9.484956 5.448316 5.804710 12.350846 -1.124300 3.288700 11.891000 -90.514629 -21.418264 54.554026 18.531152 -30.225596 -5.484330 -0.529018 0.689091 -2.976597 -7.125000 0.000000 0.000000 84.962484 -6.341815 30.826296 -15.834088 30.016661 -4.048720 0.628926 -2.520424 -4.728697 7.125000 0.000000 0.000000 
48.457104 16.740347 -5.427074 171.232194 -17.165378 179.928097 -38.338785 0.747581 15.726659 -1.062331 7.463755 17.732255 1.615224 -9.745785 -16.020078 0.083700 1.866000 5.135500 4.923590 7.805027 -16.672175 -2.009169 -5.581283 12.563548 0.556290 12.252263 -7.657477 -0.017500 0.853800 -2.346700 -0.302428 1.096813 0.349419 -1.178952 -0.473387 9.525236 5.461893 5.708146 12.296907 -1.159100 3.259500 11.831200 -90.898503 -21.187149 54.599600 18.711126 -30.452905 -5.575912 -0.530662 0.688413 -3.252078 -7.125000 0.000000 0.000000 85.075881 -6.023668 30.288942 -15.549388 29.691873 -3.952628 0.607137 -2.519733 -4.012944 7.125000 0.000000 0.000000 
48.446107 16.709205 -5.578780 171.067782 -17.704431 179.912961 -38.927664 0.100026 16.648843 -1.056392 7.576264 18.079615 1.654441 -8.945052 -16.864968 0.017300 0.850100 2.336400 4.875891 8.789813 -15.961792 -2.018141 -5.751572 12.962503 0.506604 11.315555 -7.064559 -0.001500 -0.247800 0.680900 -0.307719 1.103190 0.396595 -1.199337 -0.488824 9.623530 5.520103 5.656016 12.206425 -1.151900 3.252400 11.734100 -91.092022 -20.980745 54.426901 18.868106 -30.649107 -5.659032 -0.529760 0.694808 -3.233002 -7.125000 0.000000 0.000000 85.223449 -5.619466 29.965034 -15.284748 29.422623 -3.878461 0.560926 -2.537761 -3.310262 7.125000 0.000000 0.000000 
48.436137 16.680528 -5.730074 171.055293 -18.320007 179.877021 -39.278462 -0.575724 17.618766 -1.033865 7.675628 18.422827 1.692924 -8.591091 -17.406069 0.010400 0.658200 1.808700 4.963452 9.963852 -15.275721 -2.039602 -6.033681 13.640225 0.444497 10.244038 -6.374474 -0.017400 -0.852200 2.342100 -0.320793 1.197517 0.449450 -1.361487 -0.442363 9.739544 5.564762 5.525691 12.212819 -1.209200 3.239600 11.771500 -91.162526 -20.781343 54.659456 19.055996 -30.873818 -5.753622 -0.533795 0.693954 -3.423483 -7.125000 0.000000 0.000000 85.376726 -5.331252 30.001096 -15.194563 29.349502 -3.854792 0.539893 -2.551274 -3.112178 7.125000 0.000000 0.000000 
48.427092 16.658842 -5.881471 171.042855 -18.983962 179.726559 -38.641080 0.214148 17.855551 -0.966303 7.777589 18.794847 1.712334 -8.556779 -17.541438 0.046900 -1.396900 -3.841700 5.152828 10.824191 -14.580598 -2.078418 -6.344310 14.445788 0.392103 9.126123 -5.209546 -0.071700 -1.727000 4.751800 -0.144562 0.666442 0.454126 -0.559927 -0.808867 9.702223 5.527245 6.270181 12.269149 -1.104300 3.526200 11.803500 -91.878206 -20.285503 53.360546 19.129115 -30.986334 -5.804241 -0.536171 0.701301 -3.395217 -7.125000 0.000000 0.000000 84.154756 -4.869728 32.036142 -15.223660 29.197985 -3.806320 0.546410 -2.488491 -3.536717 7.125000 0.000000 0.000000 
48.418767 16.632016 -6.030402 171.132652 -19.635917 179.772081 -38.388798 0.103531 18.154962 -0.870811 8.013553 19.513211 1.782460 -8.763883 -17.939750 0.105800 -2.097200 -5.774500 5.302006 11.862925 -14.399453 -2.138600 -6.730533 15.448827 0.322716 7.751910 -3.321000 -0.216000 -2.992000 8.256300 -0.052940 0.399092 0.457664 -0.244481 -0.976285 9.705829 5.622077 6.562394 12.190577 -0.991300 3.645200 11.704000 -92.156873 -19.820110 52.891295 19.252851 -31.149736 -5.874099 -0.541520 0.710144 -3.326280 -7.125000 0.000000 0.000000 83.668167 -4.422544 32.829316 -15.108151 29.002405 -3.743815 0.535069 -2.461471 -3.286287 7.125000 0.000000 0.000000 
48.411161 16.615057 -6.177585 171.273488 -20.240595 179.681142 -38.102717 0.032572 18.582395 -0.763472 8.234352 20.211859 1.847804 -9.235836 -18.127444 0.125800 -2.286000 -6.296700 5.561472 13.042783 -14.213327 -2.205519 -7.200160 16.652955 0.220514 6.435283 -1.630918 -0.391100 -4.015900 11.121400 -0.031557 0.458158 0.500212 -0.315844 -0.938516 9.709276 5.784449 6.505563 12.093476 -0.872200 3.626100 11.596200 -92.650832 -19.456702 52.603290 19.279431 -31.176439 -5.887345 -0.536607 0.710274 -3.015129 -7.125000 0.000000 0.000000 83.694053 -4.063084 32.733876 -15.013515 28.920563 -3.723336 0.512707 -2.471280 -2.907789 7.125000 0.000000 0.000000 
48.400677 16.598714 -6.323021 171.739659 -20.797806 179.682141 -37.607566 -0.359510 19.024880 -0.680513 8.387235 20.738473 1.877609 -9.566793 -18.073869 0.097700 -2.015700 -5.549200 6.064512 13.973593 -14.812143 -2.299997 -7.834620 18.297123 0.125280 5.550686 -0.602597 -0.574700 -4.854700 13.494700 -0.017785 0.650509 0.523560 -0.668211 -0.779885 9.717106 5.869062 6.289066 12.052599 -0.889100 3.566300 11.556000 -92.683460 -19.066622 53.463889 19.466635 -31.390301 -5.974575 -0.555046 0.698407 -3.842617 -7.125000 0.000000 0.000000 84.074434 -3.731204 32.126361 -14.841604 28.800700 -3.693203 0.484468 -2.502207 -2.489878 7.125000 0.000000 0.000000 
48.386391 16.588745 -6.468868 172.555541 -21.360611 179.559931 -36.842525 -0.941065 19.537286 -0.587480 8.542377 21.309635 1.909622 -9.883548 -18.000286 0.046500 -1.391200 -3.825800 7.059989 14.277826 -15.674180 -2.407199 -8.474672 19.945622 0.041518 4.945961 0.130993 -0.568300 -4.828000 13.418800 0.040155 0.808113 0.511657 -1.008343 -0.616220 9.586633 5.946099 6.047701 11.971605 -0.936500 3.499300 11.465700 -92.328554 -18.542358 54.697001 19.816733 -31.794326 -6.145587 -0.573298 0.683070 -4.920285 -7.125000 0.000000 0.000000 84.520549 -3.360301 31.172814 -14.489176 28.465805 -3.603887 0.442559 -2.527647 -1.603911 7.125000 0.000000 0.000000 
48.372104 16.584017 -6.616771 173.311395 -21.866828 179.369593 -36.041812 -1.263087 20.071293 -0.498798 8.673896 21.826539 1.923524 -9.981645 -17.916687 0.043300 -1.343500 -3.694600 7.892727 14.828392 -16.156677 -2.505722 -9.168968 21.778715 -0.042328 4.074580 -0.315086 -0.760000 -5.567400 15.534100 0.132353 0.822504 0.506084 -1.146115 -0.560453 9.481139 5.951334 6.068133 11.942326 -0.965700 3.523700 11.426400 -92.939039 -18.079073 53.940857 19.348240 -31.258905 -5.904232 -0.559364 0.708321 -3.709377 -7.125000 0.000000 0.000000 84.594986 -2.869279 30.941313 -14.198186 28.149140 -3.520060 0.401151 -2.535778 -0.840487 7.125000 0.000000 0.000000 
48.360592 16.592136 -6.768888 173.863140 -22.272854 178.871075 -35.007939 -0.830732 20.496753 -0.387653 8.769464 22.268632 1.887118 -10.604371 -17.173363 0.040900 -1.305300 -3.589400 8.834216 14.951503 -16.041241 -2.595973 -9.796784 23.456046 -0.091069 3.326960 -1.829738 -0.370600 -3.910200 10.824200 0.193214 0.908291 0.622887 -1.328039 -0.514885 9.683405 5.813491 6.131326 11.973503 -1.087800 3.568600 11.493400 -93.022910 -17.804760 53.877731 19.223498 -31.119052 -5.839389 -0.568255 0.708200 -3.645936 -7.125000 0.000000 0.000000 84.595260 -2.153619 31.028429 -14.053020 28.006118 -3.478222 0.376012 -2.541335 -0.513655 7.125000 0.000000 0.000000 
48.347436 16.596556 -6.915454 174.292530 -22.694444 178.507348 -34.175313 -0.605251 20.771192 -0.232833 9.039048 23.180000 1.882141 -10.530066 -17.058076 0.133700 -2.356500 -6.491800 9.543550 14.982651 -16.145933 -2.716334 -10.427380 25.224801 -0.131808 2.621591 -3.591891 -0.055700 -1.523000 4.189300 0.272381 0.954502 0.662991 -1.322541 -0.488195 9.595629 5.763717 6.214716 11.972976 -1.158300 3.622300 11.494600 -93.242212 -17.351177 53.747466 19.006890 -30.870949 -5.726315 -0.575027 0.709529 -3.409768 -7.125000 0.000000 0.000000 84.520837 -1.631026 31.010423 -13.972317 27.901288 -3.452727 0.358136 -2.536172 -0.128932 7.125000 0.000000 0.000000 
48.326263 16.600256 -7.055340 174.583841 -23.181734 178.203326 -33.598579 -0.510755 21.032028 -0.086033 9.282842 24.008723 1.827103 -10.627035 -16.477713 0.137100 -2.386400 -6.574700 10.021837 14.964655 -16.125887 -2.861206 -10.981124 26.842018 -0.157942 2.226969 -4.688599 -0.003700 -0.394400 1.083800 0.334339 0.903346 0.696345 -1.389243 -0.505429 9.511998 5.762290 6.382855 11.979822 -1.171900 3.711400 11.504400 -93.508520 -16.916133 53.329473 18.641024 -30.440422 -5.539994 -0.575299 0.717984 -2.858466 -7.125000 0.000000 0.000000 84.515658 -0.940410 30.862415 -13.794818 27.707513 -3.411419 0.310975 -2.547504 0.504127 7.125000 0.000000 0.000000 
